<?xml version="1.0" encoding="utf-8"?>
<!-- Generator: Adobe Illustrator 25.4.1, SVG Export Plug-In . SVG Version: 6.00 Build 0)  -->
<svg version="1.1" id="Layer_1" xmlns="http://www.w3.org/2000/svg" xmlns:xlink="http://www.w3.org/1999/xlink" x="0px" y="0px"
	 viewBox="0 0 595.28 841.89" style="enable-background:new 0 0 595.28 841.89;" xml:space="preserve">
<style type="text/css">
	.st0{fill:#FEFEFE;}
	.st1{fill:#008C32;}
	.st2{fill:#1C9F1C;}
	.st3{fill:#1F9F1F;}
	.st4{fill:#1CA01C;}
	.st5{fill:#1F9E1F;}
	.st6{fill:#209F20;}
	.st7{fill:#6AB675;}
	.st8{fill:#22A022;}
	.st9{fill:#71BA7C;}
	.st10{fill:#6EB879;}
	.st11{fill:#26A126;}
	.st12{fill:#75BC80;}
	.st13{fill:#9FD69F;}
	.st14{fill:#77BD82;}
	.st15{fill:#81C28B;}
	.st16{fill:#A5D8A5;}
	.st17{fill:#A2D7A2;}
	.st18{fill:#F1F8F1;}
	.st19{fill:#6FC16F;}
	.st20{fill:#DAEEE1;}
	.st21{fill:#BBE2BB;}
	.st22{fill:#26A226;}
	.st23{fill:#97D297;}
	.st24{fill:#A0D6A0;}
	.st25{fill:#76BD81;}
	.st26{fill:#E6F3EB;}
	.st27{fill:#A9DAA9;}
	.st28{fill:#9CD49C;}
	.st29{fill:#74BB7F;}
	.st30{fill:#9BD49B;}
	.st31{fill:#E9F5E9;}
	.st32{fill:#BEDFC3;}
	.st33{fill:#4FB34F;}
	.st34{fill:#4CB24C;}
	.st35{fill:#9ED69E;}
	.st36{fill:#EAF4EB;}
	.st37{fill:#94D194;}
	.st38{fill:#BBE1BB;}
	.st39{fill:#8ACE8A;}
	.st40{fill:#5FBA5F;}
	.st41{fill:#A6D8A6;}
	.st42{fill:#5AB75A;}
	.st43{fill:#8BCD8B;}
	.st44{fill:#FDFEFD;}
	.st45{fill:#ACDAAC;}
	.st46{fill:#F9FCF9;}
	.st47{fill:#A9DBA9;}
	.st48{fill:#FAFCFA;}
	.st49{fill:#AADAAA;}
	.st50{fill:#9ECFA6;}
	.st51{fill:#AAD5B1;}
	.st52{fill:#FFFFFF;}
</style>
<g>
	<g>
		<path class="st0" d="M307.08,528.31c-48.96,0-97.92-0.03-146.89,0.08c-2.83,0.01-3.19-0.75-3.19-3.31
			c0.08-64.47,0.08-128.94-0.01-193.4c0-2.63,0.45-3.29,3.22-3.28c97.92,0.09,195.85,0.09,293.77,0c2.66,0,3.01,0.66,3.01,3.12
			c-0.08,64.59-0.08,129.18,0,193.78c0,2.51-0.42,3.1-3.03,3.09C405.01,528.28,356.04,528.31,307.08,528.31z"/>
		<path class="st1" d="M200.42,419.14c-8.06-1.66-12.98-6.99-16.69-13.95c-8.79-16.46-9.67-33.43-3.85-50.99
			c1.7-5.13,5.47-8,10.09-10.11c1.5-0.88,3-0.87,4.51-0.03c5.57,2.12,9.2,5.85,11.48,11.55c4.47,11.15,6.43,22.79,8.01,34.56
			c1,7.41,4.07,13.68,10.74,17.59c2.17,1.27,0.91,2.31-0.04,2.96c-3.79,2.59-7.44,5.49-11.94,6.8c-2.07,0.6-3.96,1.94-6.27,1.64
			C204.43,420.05,202.42,420.08,200.42,419.14z"/>
		<path class="st2" d="M290.23,428.04c5.01-6.27,7.31-5.91,10.82,0.71c0.28-0.23,0.67-0.4,0.79-0.68c1-2.3,2.08-4.71,5.07-4.5
			c3.06,0.22,4.04,2.79,4.77,5.28c1.03,3.5,1.01,7.13,1.02,10.74c0,8.23-0.06,16.46,0.05,24.69c0.03,2.17-0.73,2.68-2.78,2.68
			c-2.04,0-2.8-0.47-2.83-2.66c-0.11-9.34,0.55-18.7-0.43-28.03c-0.09-0.86-0.04-1.8-0.37-2.57c-0.34-0.79-0.34-1.94-1.78-2.01
			c-1.33-0.06-1.64,0.84-2.12,1.66c-0.9,1.55-1.01,3.24-1,5.01c0.06,8.35,0.04,16.71,0.03,25.07c0,1.78,0.54,3.57-2.61,3.6
			c-3.27,0.04-2.83-1.77-2.87-3.75c-0.2-8.97,0.48-17.95-0.41-26.91c-0.05-0.5-0.07-1-0.17-1.48c-0.28-1.29-0.38-2.88-2.01-3.11
			c-1.99-0.28-2.3,1.54-2.7,2.84c-0.36,1.15-0.37,2.44-0.37,3.67c-0.03,8.48-0.07,16.96,0.02,25.44c0.02,2.21-0.27,3.31-2.97,3.29
			c-2.65-0.02-2.69-1.28-2.68-3.2c0.03-11.97-0.01-23.94,0.05-35.91c0.01-1.14-0.85-3.11,1.45-3.08
			C287.91,424.84,290.6,423.47,290.23,428.04z"/>
		<path class="st3" d="M329.05,458.69c4.21-8.36,1.16-14.59-5.08-18.49c-3.1-1.94-4.91-4.44-5.79-7.5
			c-1.67-5.82-1.72-11.81,0.2-17.64c0.87-2.64,2.51-4.87,5.33-5.87c2.06-0.91,4.12-0.99,6.17,0.05c4.04,2.46,7.73,11.22,6.51,15.35
			c-0.55,1.85-2.03,0.97-3.11,1.08c-1.18,0.12-2.63,0.35-2.62-1.64c0-1.49-0.39-2.92-0.64-4.38c-0.41-2.33-2.49-3.09-3.88-3.24
			c-1.15-0.12-2.56,1.77-2.95,3.51c-1.21,5.51-0.14,10.16,4.66,13.68c10.52,7.72,9.77,18.56,7.29,27.77
			c-0.82,3.05-2.94,4.89-5.99,5.66c-1.54,0.85-3.08,0.87-4.62-0.02c-3.74-1.31-6.27-3.53-6.88-7.78c-0.42-2.89-1.26-5.72-1.19-8.68
			c1.92-1.21,3.83-1.29,5.73,0.05c0.26,2.86,0.08,5.86,2.36,8.13C326.05,459.75,327.56,459.84,329.05,458.69z"/>
		<path class="st4" d="M231.14,437.72c0-8.6,0.06-17.19-0.05-25.79c-0.03-2.09,0.51-2.83,2.68-2.75c4.1,0.17,8.22,0.15,12.32,0.01
			c2.05-0.07,2.8,0.48,2.81,2.67c0.05,5.63,0.16,5.63-5.46,5.64c-6.34,0.01-6.34,0.01-6.34,6.44c0,0.75-0.04,1.5,0.01,2.24
			c0.15,2.6-1,5.72,0.52,7.66c1.52,1.94,4.66,0.56,7.07,0.69c1.58,0.08,2.07,0.51,2.16,2.14c0.34,5.94,0.33,6.21-5.54,5.95
			c-3.36-0.15-4.5,0.74-4.3,4.25c0.32,5.59,0.02,11.21,0.12,16.81c0.04,2.12-0.09,3.33-2.88,3.33c-2.87,0-3.18-1.14-3.15-3.52
			c0.11-8.59,0.04-17.19,0.04-25.79C231.14,437.72,231.14,437.72,231.14,437.72z"/>
		<path class="st5" d="M425.53,427.27c1.35-1.82,2.47-4.27,5.25-3.66c2.6,0.57,3.7,2.75,4.4,5.25c1.1,3.91,0.96,7.87,0.99,11.84
			c0.05,7.59,0.02,15.19,0.01,22.78c0,1.84,0.4,3.54-2.69,3.57c-3.2,0.02-2.87-1.68-2.91-3.72c-0.2-9.08,0.5-18.17-0.41-27.24
			c-0.09-0.86-0.08-1.78-0.41-2.56c-0.3-0.69-0.33-1.76-1.55-1.8c-1.06-0.04-1.71,0.29-2.44,1.18c-1.08,1.32-1.02,2.74-1.02,4.2
			c-0.02,8.96-0.1,17.93,0.05,26.89c0.04,2.64-1.08,2.89-3.29,3c-2.55,0.13-2.77-1.01-2.76-3.06c0.09-12.94,0.09-25.89,0.12-38.83
			c1.7-1.2,3.43-1.08,5.17-0.09l0.05-0.02C424.89,425.54,423.56,427.44,425.53,427.27z"/>
		<path class="st3" d="M404.51,467.04c-2.82-0.96-4.51-2.81-5.31-5.79c-2.81-10.42-3.01-20.8,0.06-31.19
			c0.52-1.76,1.03-3.57,2.57-4.74c4.39-3.34,9.01-2.11,10.98,3.18c4.13,11.09,4.03,22.28,0.34,33.5c-0.82,2.49-2.36,4.12-4.76,5.02
			C407.1,467.84,405.81,467.83,404.51,467.04z"/>
		<path class="st2" d="M257.9,431.6c-1.51,1.2-1.24,2.95-1.44,4.56c-1.94,1.14-3.86,1.42-5.73-0.16c0.81-4.22,0.46-8.84,5.26-11.36
			c3.64-1.91,7.07-1.21,9.08,2.46c1.33,2.43,1.86,5.05,1.99,7.8c0.46,9.68-0.35,19.39,0.63,29.06c0.1,0.95,1.19,2.79-0.98,2.87
			c-1.74,0.06-4.12,1.12-4.77-1.87c-0.12-0.55-0.28-1.1-0.49-1.91c-1.28,1.47-2.34,2.7-3.41,3.93c-1.01,0.76-2.06,0.73-3.12,0.11
			c-1.95-0.45-3.17-1.78-3.71-3.58c-1.81-5.98-2.03-11.97,0.85-17.69c1.26-2.5,3.29-4.56,6.42-4.28c2.77,0.25,3.45-0.89,3.22-3.39
			c-0.2-2.21-0.24-4.42-1.45-6.39C259.53,430.85,258.73,431.03,257.9,431.6z"/>
		<path class="st3" d="M360.38,431.68c-0.96,0.75-1.12,1.9-1.24,2.96c-0.35,3.02-2.61,1.56-4.04,1.7c-2.12,0.21-1.54-1.57-1.41-2.63
			c0.45-3.66,1.01-7.18,4.89-9.2c3.53-1.84,7.27-0.97,9.14,2.7c1.26,2.47,1.69,5.15,1.8,7.89c0.4,9.58-0.25,19.18,0.61,28.76
			c0.09,1.04,1.3,3.01-1.26,3c-1.68-0.01-3.86,0.85-4.35-1.96c-0.1-0.56-0.41-1.08-0.69-1.8c-1.45,1.18-1.79,3.07-3.33,3.89
			c-1.03,0.73-2.08,0.71-3.14,0.07c-1.81-0.18-3.05-1.63-3.43-2.9c-1.92-6.55-2.29-13.15,1.26-19.37c0.54-0.95,1.2-2.25,2.79-1.9
			c1.78-1.51,4.46,0.38,6.12-1.61c-0.1-3.23,0.44-6.56-1.45-9.51C361.95,430.83,361.18,431.01,360.38,431.68z"/>
		<path class="st3" d="M383.55,460.27c-0.66,2.23,1.84,5.06-1.28,6.82c-1.07,0.62-2.14,0.64-3.18-0.06
			c-4.51-2.22-4.2-6.6-4.33-10.49c-0.28-8.21-0.13-16.44-0.16-24.67c-0.5-1.09-2.2-0.68-2.5-2.01c-0.06-2.48-0.64-5.16,2.45-6.43
			c0.04-2.46,0.25-4.94,0.08-7.38c-0.16-2.35,0.5-3.14,2.99-3.13c2.5,0,3.17,0.82,3.03,3.17c-0.15,2.45,0.04,4.92,0.09,7.38
			c0.6,1.14,2.24,0.49,2.83,1.64c-0.01,1.71-0.03,3.41-0.04,5.12c-0.65,1.06-2.21,0.49-2.83,1.6c-0.02,7.94-0.06,15.88-0.03,23.82
			c0,1.05-0.32,2.26,0.7,3.12C381.96,459.45,383.07,459.4,383.55,460.27z"/>
		<path class="st6" d="M349.91,425.1c-0.01,1.71-0.02,3.42-0.03,5.12c-0.65,1.06-2.22,0.48-2.84,1.59
			c-0.02,7.7-0.08,15.39-0.06,23.09c0.01,1.93,0.41,3.48,2.1,5.09c1.78,1.7,1.55,4.61,0.23,7.02c-1.28,0.84-2.57,0.81-3.87,0.04
			c-2.63-1.21-3.44-3.48-3.74-6.16c-0.95-8.32-0.27-16.67-0.49-25c-0.03-1.36-0.14-2.73-0.21-4.09c-0.6-0.98-2.24-0.59-2.56-1.95
			c-0.02-2.47-0.7-5.2,2.54-6.36c0.08-2.35,0.31-4.7,0.2-7.04c-0.11-2.33,0.17-3.54,3.09-3.55c3.03-0.02,2.7,1.62,2.69,3.51
			c-0.01,2.35,0.08,4.71,0.12,7.06C347.68,424.61,349.31,423.96,349.91,425.1z"/>
		<path class="st7" d="M221.34,424.95c1.02-1.7,2.5-2.71,4.45-3.03c1.58-0.49,2.07,0.16,1.73,1.67
			c-7.36,12.72-8.77,26.99-10.6,41.13c-0.92,7.13-1.19,14.31-4.62,20.96c-1.91,3.71-4.96,6.15-8.45,6.16
			c-3.64,0.01-6.69-2.85-7.93-6.72c-4.03-12.59-2.87-24.69,3.57-36.27c1.17-0.31,1.39,0.56,1.69,1.34c0.31,2.73-1.17,5.03-1.82,7.52
			c-1.64,6.28-2.78,12.58-1.49,19.11c0.72,3.62,1.91,6.94,4.72,9.48c1.35,1.67,2.67,1.63,3.94-0.11c3.49-3.73,4.53-8.45,5.47-13.24
			c1.69-8.66,2.16-17.48,3.77-26.16c1.03-5.52,2.33-10.92,4.13-16.21c0.44-1.28,1.1-2.52,0.87-3.96
			C220.76,425.99,220.97,425.44,221.34,424.95z"/>
		<path class="st2" d="M276.6,425.13c0.11,0.69,0.23,1.38,0.39,2.35c0.48-0.51,0.75-0.73,0.94-1.01c0.85-1.25,1.42-3.34,3.25-2.78
			c1.78,0.54,0.69,2.56,0.72,3.88c0.05,1.92,0.43,3.95-0.7,5.75c-0.81,0.92-2.27,0.44-3.06,1.41c-1.5,1.45-1.3,3.34-1.3,5.15
			c-0.02,8.21-0.07,16.43,0.03,24.64c0.02,2.04-0.74,2.52-2.62,2.44c-1.71-0.08-3.08,0.11-3.05-2.4
			c0.17-13.18,0.18-26.36,0.25-39.55C273.2,424.03,274.92,423.87,276.6,425.13z"/>
		<path class="st8" d="M392.54,466.86c-5.15,0.11-5.16,0.11-5.15-4.95c0.02-12.27,0.05-24.53,0.08-36.8c4.42-1.69,5.5-1.07,5.51,3.2
			c0.01,11.77,0.01,23.55-0.01,35.32C392.97,464.71,393.32,465.87,392.54,466.86z"/>
		<path class="st9" d="M228.7,359.95c2.37,3.04,2.06,6.74,2.33,10.24c0.54,7.18-0.96,14.31-0.6,21.52c0.13,2.48,0.7,4.52,2.16,6.41
			c0.39,2.4-1.08,1.83-2.4,1.51c-2.7-0.94-4.67-2.67-5.84-5.29c0.28-0.38,0.42-0.88,0.91-1.09c1.22-0.34,1.91,0.63,2.77,1.1
			c0.78-0.73-0.23-1.28-0.17-1.93c-0.81-2.53-1.1-5.16-0.8-7.75c0.92-7.93,1.05-15.83-0.29-23.72
			C227.11,360.03,227.53,359.26,228.7,359.95z"/>
		<path class="st10" d="M225.23,393.34c-0.3,0.33-0.59,0.66-0.89,1c-6.11-9.8-6.98-20.45-5.04-31.53c0.2-1.16,0.48-2.49,1.88-3.01
			c0.83-0.28,1.17,0.25,1.45,0.88c0.33,3.13-0.93,6.08-1.02,9.2c-0.18,6.45,0.77,12.6,3.28,18.54
			C225.55,389.98,226.49,391.61,225.23,393.34z"/>
		<path class="st11" d="M393.27,405.05c-0.02,1.36-0.09,2.72-0.06,4.08c0.04,2.14,0.39,4.01-3.02,3.99c-3.26-0.02-2.84-1.8-2.8-3.77
			c0.03-1.49,0.03-2.97,0.04-4.46C389.4,403.75,391.36,403.53,393.27,405.05z"/>
		<path class="st12" d="M200.56,450.68c-0.12-0.75-0.31-1.46-1.07-1.83c1.63-6.05,5.74-10.46,9.83-14.89
			c1.51-0.19,1.45,0.96,1.63,1.91c0,1.04-0.39,1.95-1.11,2.66c-3.02,2.99-5.34,6.45-7.19,10.26
			C202.22,449.66,201.74,450.58,200.56,450.68z"/>
		<path class="st13" d="M392.54,466.86c0.09-13.17,0.26-26.34,0.23-39.51c-0.01-4.29-3.47-1.6-5.29-2.24
			c0.46-2.92,2.7-1.28,4.13-1.52c1.51-0.25,1.84,1.04,1.84,2.22c0,13.34-0.02,26.67-0.05,40.01
			C393.39,466.36,393.09,466.74,392.54,466.86z"/>
		<path class="st14" d="M222.18,360.78c-0.33-0.33-0.66-0.65-1-0.98c0.34-1.38,0.93-2.56,2.41-3.03c1.02-0.66,2.03-0.66,3.03,0.06
			c0.8,0.97,1.93,1.72,2.08,3.12c-0.62,0-1.12,0.19-1.38,0.79C225.61,361.08,223.9,361.05,222.18,360.78z"/>
		<path class="st15" d="M221.34,424.95c0.02,0.56,0.03,1.11,0.05,1.67c-1.5,2.65-3.72,4.4-6.61,5.33c-0.72-0.37-0.99-1-1.01-1.77
			C215.69,427.56,217.84,425.27,221.34,424.95z"/>
		<path class="st16" d="M340.98,423.49c-2.39,1.71-2.59,4.14-2.18,6.76c0.43,0.47,0.43,0.96,0.03,1.45
			C336.85,427.06,337.66,423.98,340.98,423.49z"/>
		<path class="st17" d="M374.54,423.44c-2.23,1.79-2.49,4.19-2.08,6.8c0.41,0.48,0.42,0.96,0.02,1.45
			C370.54,427.15,371.31,424.06,374.54,423.44z"/>
		<path class="st18" d="M393.27,405.05c-1.95-0.05-3.9-0.1-5.85-0.15C389.27,402.58,391.75,402.65,393.27,405.05z"/>
		<path class="st19" d="M329.87,409.25c-2.06-0.02-4.11-0.04-6.17-0.05C325.78,406.81,327.83,407.03,329.87,409.25z"/>
		<path class="st20" d="M200.42,419.14c2.01,0.01,4.02,0.02,6.03,0.03C204.43,421.39,202.42,421.36,200.42,419.14z"/>
		<path class="st21" d="M250.74,436c1.91,0.05,3.82,0.11,5.73,0.16C254.77,438.5,252.15,438.42,250.74,436z"/>
		<path class="st22" d="M364.13,441.29c-1.33,3.26-4.08,1.08-6.12,1.61C359.43,440.01,362.2,442.24,364.13,441.29z"/>
		<path class="st23" d="M322.17,450.6c-1.91-0.02-3.82-0.03-5.73-0.05C317.94,448.26,320.67,448.28,322.17,450.6z"/>
		<path class="st13" d="M276.6,425.13c-1.71-0.04-3.43-0.09-5.14-0.13C273.19,422.83,275.09,422.88,276.6,425.13z"/>
		<path class="st24" d="M424.04,425.01c-1.72,0.03-3.45,0.06-5.17,0.09C420.39,422.88,422.31,422.84,424.04,425.01z"/>
		<path class="st25" d="M210.16,436.24c-0.01-0.86,0.11-1.76-0.84-2.28c0.87-0.85,1.39-2.14,2.81-2.34c1.16-0.39,1.29,0.4,1.39,1.23
			C212.68,434.25,212.27,436.09,210.16,436.24z"/>
		<path class="st26" d="M194.47,344.07c-1.5,0.01-3.01,0.02-4.51,0.03C191.45,341.93,192.95,341.94,194.47,344.07z"/>
		<path class="st27" d="M329.05,458.69c-1.49,2.36-2.99,2.42-4.52,0.04C326.04,458.72,327.55,458.71,329.05,458.69z"/>
		<path class="st28" d="M324.51,467.02c1.54,0.01,3.08,0.01,4.62,0.02C327.58,469.23,326.04,469.21,324.51,467.02z"/>
		<path class="st29" d="M230.19,399.63c1.05-0.1,2.29,0.09,2.4-1.51c1.28-0.04,1.45,1.02,2.02,2.11
			C232.96,400.59,231.54,400.6,230.19,399.63z"/>
		<path class="st28" d="M345.44,467.05c1.29-0.01,2.58-0.02,3.87-0.04C348.03,469.19,346.75,469.43,345.44,467.05z"/>
		<path class="st30" d="M404.51,467.04c1.29-0.01,2.59-0.01,3.88-0.02C407.11,469.26,405.82,469.36,404.51,467.04z"/>
		<path class="st31" d="M278.15,434.72c0.21-2.22,1.87-1.3,3.06-1.41C280.88,435.28,279.33,434.61,278.15,434.72z"/>
		<path class="st32" d="M227.52,423.58c-0.05-1.1-0.75-1.52-1.73-1.66c0.19-0.96,0.78-1.73,1.68-1.09
			C228.43,421.51,228.45,422.64,227.52,423.58z"/>
		<path class="st14" d="M213.15,433.16c-0.04-0.71-0.31-1.27-1.02-1.54c0.1-0.99,0.65-1.46,1.64-1.44c0.63,0.31,0.86,0.85,0.87,1.51
			C214.52,432.55,214.51,433.54,213.15,433.16z"/>
		<path class="st33" d="M347.04,431.81c0.08-2.08,1.72-1.38,2.84-1.59C350.07,432.8,348.01,431.33,347.04,431.81z"/>
		<path class="st34" d="M380.69,431.82c0.09-2.05,1.69-1.41,2.83-1.6C383.71,432.77,381.67,431.35,380.69,431.82z"/>
		<path class="st28" d="M349.91,425.1c-1.02-0.41-2.94,0.73-2.83-1.64C348.15,423.79,349.98,422.8,349.91,425.1z"/>
		<path class="st35" d="M254.93,467.09c1.04-0.04,2.08-0.07,3.12-0.11C257.08,468.99,256.05,469.21,254.93,467.09z"/>
		<path class="st36" d="M226.63,356.83c-1.01-0.02-2.02-0.04-3.03-0.06C224.65,354.79,225.66,354.81,226.63,356.83z"/>
		<path class="st30" d="M357.38,467.08c1.05-0.02,2.09-0.05,3.14-0.07C359.52,469.07,358.48,469.14,357.38,467.08z"/>
		<path class="st37" d="M379.09,467.03c1.06,0.02,2.12,0.04,3.18,0.06C381.17,469.07,380.11,469.14,379.09,467.03z"/>
		<path class="st28" d="M383.56,425.1c-1.01-0.43-2.96,0.77-2.83-1.64C381.79,423.8,383.65,422.77,383.56,425.1z"/>
		<path class="st38" d="M425.53,427.27c-0.09,0.45,0.15,1.07-0.49,1.22c-0.19,0.04-0.65-0.34-0.69-0.57
			c-0.15-0.97-0.18-1.95-0.26-2.93C424.57,425.75,425.05,426.51,425.53,427.27z"/>
		<path class="st39" d="M257.9,431.6c0-0.79,0.27-1.38,1.18-1.32c0.9,0.06,0.99,0.82,1.17,1.49
			C259.47,431.71,258.69,431.65,257.9,431.6z"/>
		<path class="st40" d="M338.82,431.69c-0.01-0.48-0.02-0.97-0.03-1.45c1.03,0.09,2.2-0.02,2.21,1.55
			C340.28,431.76,339.55,431.73,338.82,431.69z"/>
		<path class="st41" d="M360.38,431.68c0.14-0.57,0.13-1.26,0.96-1.33c1.04-0.09,1.05,0.8,1.33,1.43
			C361.91,431.75,361.15,431.71,360.38,431.68z"/>
		<path class="st42" d="M372.48,431.69c-0.01-0.48-0.01-0.97-0.02-1.45c1.08,0.07,2.19,0.1,2.13,1.64
			C373.89,431.81,373.18,431.75,372.48,431.69z"/>
		<path class="st43" d="M383.55,460.27c-1.01-0.1-2.22,0.1-2.2-1.51C382.42,458.79,383.82,458.32,383.55,460.27z"/>
		<path class="st44" d="M405.23,458.79c-1.1-0.63-1.23-1.77-1.45-2.83c-1.49-7.16-1.42-14.32,0.16-21.44
			c0.27-1.22,0.47-2.7,2.36-2.8c1.32-0.07,1.91,0.74,2.1,1.66c1.84,8.52,2.94,17.03-0.76,25.39
			C406.85,459.32,406.04,459.31,405.23,458.79z"/>
		<path class="st45" d="M405.23,458.79c0.8-0.01,1.61-0.02,2.41-0.03c-0.14,0.69-0.26,1.38-1.2,1.39
			C405.5,460.16,405.34,459.5,405.23,458.79z"/>
		<path class="st46" d="M261.54,449.07c0.3,3.32,0.51,6.64-1.49,9.59c-0.52,0.77-0.94,1.71-2.23,1.5c-1.18-0.19-1.27-1.19-1.41-1.92
			c-0.63-3.29-1.6-6.69,1.46-9.42C259.13,448.19,260.38,447.9,261.54,449.07z"/>
		<path class="st47" d="M261.54,449.07c-1.23-0.08-2.45-0.16-3.68-0.25C259.22,446.86,260.48,446.41,261.54,449.07z"/>
		<path class="st48" d="M364,449.07c0.33,3.2,0.45,6.4-1.24,9.28c-0.41,0.7-0.68,1.89-2.02,1.82c-1.51-0.08-1.71-1.31-1.93-2.28
			c-0.73-3.19-1.36-6.43,1.54-9.03C361.61,448.17,362.84,447.91,364,449.07z"/>
		<path class="st49" d="M364,449.07c-1.22-0.07-2.43-0.13-3.65-0.2C361.89,446.85,362.93,446.9,364,449.07z"/>
		<path class="st0" d="M213.15,433.16c0.5-0.49,0.99-0.98,1.49-1.47c2.25-1.69,4.5-3.38,6.75-5.07c1.37,0.68,0.65,1.61,0.3,2.49
			c-4.33,10.72-5.68,22.06-7.11,33.41c-0.79,6.26-1.24,12.62-3.63,18.59c-0.97,2.44-2.19,4.65-4.49,6.1
			c-1.27,0.84-2.55,0.81-3.84,0.07c-3.12-1.43-4.17-4.38-5.05-7.29c-2.82-9.36-0.85-18.36,2.35-27.23c0.25-0.68,0.43-1.38,0.65-2.07
			c2.66-5.17,5.71-10.09,9.6-14.44C211.73,435.77,211.24,433.3,213.15,433.16z"/>
		<path class="st50" d="M202.62,487.27c1.28-0.02,2.56-0.04,3.84-0.07C205.22,489.45,203.94,489.48,202.62,487.27z"/>
		<path class="st44" d="M222.18,360.78c1.71-1.1,3.42-1.02,5.14-0.03c2.2,6,1.91,12.23,1.32,18.38c-0.47,4.86-0.59,9.63,0.31,14.43
			c0.32,0.87,0.49,1.66-0.88,1.61c-1.47,0.21-1.39-2-2.84-1.82c0.16-1.56-0.51-2.9-1.13-4.25
			C219.85,379.9,219.49,370.44,222.18,360.78z"/>
		<path class="st51" d="M228.07,395.16c0.72-0.3,0.78-0.97,0.88-1.61c0.84,0.81,1.02,1.91,0.2,2.6
			C228.52,396.68,228.23,395.74,228.07,395.16z"/>
	</g>
</g>
<path class="st52" d="M246.59,499.08"/>
<path class="st52" d="M121,389.08"/>
</svg>
